<svg xmlns="http://www.w3.org/2000/svg" viewBox="0 0 1001.0 828.0">
<g transform="translate(0,828.0) scale(0.1,-0.1)">
<path d="M5163 8203 c-66 -103 -556 -890 -743 -1194 -25 -40 -97 -155 -160
-256 -63 -100 -144 -230 -180 -287 -182 -294 -215 -346 -360 -572 -47 -73
-106 -166 -131 -206 -25 -40 -88 -140 -141 -223 -52 -82 -171 -269 -263 -415
-93 -146 -234 -368 -315 -495 -81 -126 -191 -300 -245 -385 -138 -218 -253
-398 -328 -515 -74 -115 -243 -382 -340 -535 -36 -58 -90 -143 -120 -190 -30
-47 -139 -218 -242 -380 -103 -162 -213 -335 -245 -385 -104 -164 -276 -437
-428 -680 -83 -132 -187 -296 -231 -365 -97 -151 -326 -514 -393 -625 -27 -44
-105 -169 -173 -278 -69 -109 -125 -200 -125 -202 0 -3 541 -5 1203 -4 l1202
0 40 51 c22 28 56 72 75 98 19 26 63 80 97 121 34 41 103 124 153 184 413 496
1091 1176 1615 1620 83 69 175 148 205 174 160 137 582 449 830 612 133 88
407 259 414 259 2 0 52 28 112 62 134 75 437 223 559 272 186 74 400 126 516
126 l48 0 70 -62 c88 -80 153 -155 411 -468 158 -193 700 -873 835 -1050 36
-47 93 -121 128 -164 93 -119 123 -161 110 -153 -6 4 -52 38 -102 75 -49 37
-152 99 -228 139 l-138 72 -124 41 c-68 22 -178 52 -245 66 l-121 27 -620 7
c-846 11 -1835 12 -1835 2 0 -9 42 -60 485 -592 176 -211 334 -401 350 -422
17 -20 100 -121 185 -224 168 -202 224 -271 341 -415 230 -282 433 -413 707
-454 l97 -15 1318 0 c724 0 1317 3 1317 6 0 3 -14 25 -32 48 l-32 41 32 -29
c18 -17 32 -27 32 -25 0 3 -19 41 -43 85 -24 43 -61 111 -82 149 -21 39 -50
90 -66 115 -15 25 -61 106 -102 180 -118 215 -166 300 -207 370 -21 36 -88
153 -150 260 -62 107 -143 247 -180 310 -143 243 -180 308 -238 410 -32 58
-143 251 -247 430 -192 332 -216 374 -326 565 -34 61 -92 160 -128 222 -36 61
-105 180 -153 265 -49 84 -118 205 -154 268 -36 63 -85 149 -109 190 -23 41
-83 145 -132 230 -50 85 -133 229 -186 320 -52 91 -117 203 -144 250 -28 47
-85 146 -128 220 -42 74 -99 171 -125 215 -45 74 -187 318 -240 410 -13 22
-51 87 -85 145 -35 58 -91 152 -125 210 -34 58 -82 139 -107 180 -25 41 -71
118 -101 170 -68 119 -186 318 -362 615 -76 127 -169 284 -207 350 -39 66 -84
143 -101 170 -17 28 -119 199 -227 380 -182 305 -319 528 -335 548 -4 5 -30
-27 -57 -70z m339 -2855 c36 -57 108 -173 161 -258 52 -85 128 -208 169 -273
40 -65 96 -155 124 -200 28 -45 91 -145 139 -222 48 -77 102 -165 120 -195 18
-30 70 -116 117 -190 46 -74 94 -151 105 -170 l22 -35 -207 0 c-306 -1 -508
-27 -832 -106 -200 -50 -585 -187 -800 -286 -503 -232 -952 -496 -1575 -927
-126 -88 -254 -177 -283 -199 -30 -21 -55 -37 -57 -35 -3 3 100 124 281 329
230 260 267 302 423 484 91 105 225 262 300 350 75 88 159 184 187 215 28 30
61 69 75 86 13 17 89 107 169 200 80 93 258 304 395 469 137 165 269 324 294
354 25 29 71 84 101 122 178 223 420 520 454 556 21 24 42 41 46 38 4 -3 37
-51 72 -107z" fill="#FFFFFF" fill-rule="evenodd"/>
</g>
</svg>