<svg width="100" height="100" viewBox="0 0 100 100" xmlns="http://www.w3.org/2000/svg">
  <!--
    Artaveo favicon — mark-only lockup (roadmap § 4.1.3).
    TEMPORARY MARK: traced from the AI-generated placeholder sheet, not the
    D-12-approved master silhouette (see docs/design/art-direction.md →
    "Known Issues — temporary placeholder mark files"). Wired in now per
    explicit instruction rather than left empty; swap the two <svg> sources
    below for the corrected approved-shape marks once they land.
  -->
  <style>
    .mark-light { display: block; }
    .mark-dark { display: none; }
    @media (prefers-color-scheme: dark) {
      .mark-light { display: none; }
      .mark-dark { display: block; }
    }
  </style>

  <!-- Light scheme: near-black mark (#1A1A1A), reads on a light browser chrome -->
  <svg class="mark-light" x="10" y="14" width="80" height="72"
       viewBox="0 0 839.0 683.0" preserveAspectRatio="xMidYMid meet">
    <g transform="translate(0,683.0) scale(0.1,-0.1)">
      <path
        d="M4166 6652 c-534 -866 -976 -1577 -1222 -1965 -27 -43 -78 -124 -113
-180 -111 -178 -136 -218 -247 -392 -96 -153 -338 -538 -549 -875 -111 -177
-236 -376 -274 -435 -18 -27 -174 -270 -347 -540 -173 -269 -357 -557 -411
-640 -53 -82 -137 -213 -186 -290 -50 -77 -138 -213 -196 -302 -321 -490 -621
-958 -621 -967 0 -8 1744 -8 1936 1 l149 6 128 162 c402 509 1010 1075 1722
1600 88 65 176 130 195 145 85 64 468 310 635 407 446 259 764 373 1039 373
l101 0 -80 46 c-108 62 -192 100 -300 134 -177 55 -291 75 -490 85 l-130 7
-120 -11 c-227 -22 -511 -87 -750 -171 -423 -150 -994 -450 -1415 -744 -133
-93 -294 -212 -364 -270 -27 -22 -47 -35 -45 -29 3 8 426 456 584 618 75 77
450 493 635 705 255 292 376 436 714 858 298 370 307 380 417 462 233 173 508
284 892 360 l58 12 -5 14 c-24 63 -1211 1994 -1226 1994 -3 -1 -54 -80 -114
-178z M5400 4710 c-177 -41 -356 -94 -456 -135 -180 -75 -356 -173 -457 -257
l-28 -23 341 -570 c188 -314 352 -584 365 -600 l22 -30 100 -18 c147 -25 283
-69 418 -136 l120 -60 83 -67 84 -67 271 -327 c150 -180 340 -410 422 -511
275 -336 441 -526 766 -880 118 -129 260 -284 316 -345 55 -60 153 -165 216
-232 190 -201 192 -220 2 -27 -193 197 -661 686 -849 888 -214 230 -385 331
-666 394 l-75 17 -1044 3 -1044 4 14 -18 c40 -51 236 -286 418 -502 113 -134
244 -290 291 -346 114 -138 375 -448 476 -566 122 -142 228 -216 389 -270 l70
-24 1213 -3 c666 -1 1212 0 1212 3 0 4 -59 106 -132 228 -211 357 -409 691
-503 852 -49 83 -107 182 -130 220 -24 39 -129 216 -235 395 -106 179 -210
352 -230 385 -21 33 -165 274 -320 535 -353 593 -799 1335 -1002 1670 -85 140
-182 299 -214 352 l-59 97 -20 0 c-11 0 -76 -13 -145 -29z"
        fill="#1A1A1A" fill-rule="evenodd" />
    </g>
  </svg>

  <!-- Dark scheme: white mark, reads on a dark browser chrome -->
  <svg class="mark-dark" x="10" y="14" width="80" height="72"
       viewBox="0 0 1001.0 828.0" preserveAspectRatio="xMidYMid meet">
    <g transform="translate(0,828.0) scale(0.1,-0.1)">
      <path
        d="M5163 8203 c-66 -103 -556 -890 -743 -1194 -25 -40 -97 -155 -160
-256 -63 -100 -144 -230 -180 -287 -182 -294 -215 -346 -360 -572 -47 -73
-106 -166 -131 -206 -25 -40 -88 -140 -141 -223 -52 -82 -171 -269 -263 -415
-93 -146 -234 -368 -315 -495 -81 -126 -191 -300 -245 -385 -138 -218 -253
-398 -328 -515 -74 -115 -243 -382 -340 -535 -36 -58 -90 -143 -120 -190 -30
-47 -139 -218 -242 -380 -103 -162 -213 -335 -245 -385 -104 -164 -276 -437
-428 -680 -83 -132 -187 -296 -231 -365 -97 -151 -326 -514 -393 -625 -27 -44
-105 -169 -173 -278 -69 -109 -125 -200 -125 -202 0 -3 541 -5 1203 -4 l1202
0 40 51 c22 28 56 72 75 98 19 26 63 80 97 121 34 41 103 124 153 184 413 496
1091 1176 1615 1620 83 69 175 148 205 174 160 137 582 449 830 612 133 88
407 259 414 259 2 0 52 28 112 62 134 75 437 223 559 272 186 74 400 126 516
126 l48 0 70 -62 c88 -80 153 -155 411 -468 158 -193 700 -873 835 -1050 36
-47 93 -121 128 -164 93 -119 123 -161 110 -153 -6 4 -52 38 -102 75 -49 37
-152 99 -228 139 l-138 72 -124 41 c-68 22 -178 52 -245 66 l-121 27 -620 7
c-846 11 -1835 12 -1835 2 0 -9 42 -60 485 -592 176 -211 334 -401 350 -422
17 -20 100 -121 185 -224 168 -202 224 -271 341 -415 230 -282 433 -413 707
-454 l97 -15 1318 0 c724 0 1317 3 1317 6 0 3 -14 25 -32 48 l-32 41 32 -29
c18 -17 32 -27 32 -25 0 3 -19 41 -43 85 -24 43 -61 111 -82 149 -21 39 -50
90 -66 115 -15 25 -61 106 -102 180 -118 215 -166 300 -207 370 -21 36 -88
153 -150 260 -62 107 -143 247 -180 310 -143 243 -180 308 -238 410 -32 58
-143 251 -247 430 -192 332 -216 374 -326 565 -34 61 -92 160 -128 222 -36 61
-105 180 -153 265 -49 84 -118 205 -154 268 -36 63 -85 149 -109 190 -23 41
-83 145 -132 230 -50 85 -133 229 -186 320 -52 91 -117 203 -144 250 -28 47
-85 146 -128 220 -42 74 -99 171 -125 215 -45 74 -187 318 -240 410 -13 22
-51 87 -85 145 -35 58 -91 152 -125 210 -34 58 -82 139 -107 180 -25 41 -71
118 -101 170 -68 119 -186 318 -362 615 -76 127 -169 284 -207 350 -39 66 -84
143 -101 170 -17 28 -119 199 -227 380 -182 305 -319 528 -335 548 -4 5 -30
-27 -57 -70z m339 -2855 c36 -57 108 -173 161 -258 52 -85 128 -208 169 -273
40 -65 96 -155 124 -200 28 -45 91 -145 139 -222 48 -77 102 -165 120 -195 18
-30 70 -116 117 -190 46 -74 94 -151 105 -170 l22 -35 -207 0 c-306 -1 -508
-27 -832 -106 -200 -50 -585 -187 -800 -286 -503 -232 -952 -496 -1575 -927
-126 -88 -254 -177 -283 -199 -30 -21 -55 -37 -57 -35 -3 3 100 124 281 329
230 260 267 302 423 484 91 105 225 262 300 350 75 88 159 184 187 215 28 30
61 69 75 86 13 17 89 107 169 200 80 93 258 304 395 469 137 165 269 324 294
354 25 29 71 84 101 122 178 223 420 520 454 556 21 24 42 41 46 38 4 -3 37
-51 72 -107z"
        fill="#FFFFFF" fill-rule="evenodd" />
    </g>
  </svg>
</svg>
